<svg xmlns="http://www.w3.org/2000/svg" viewBox="0 0 130.11 293.86"><defs><style>.cls-1{fill:#fff;stroke-linecap:round;}.cls-1,.cls-2,.cls-3{stroke:#ed1d24;stroke-width:6px;}.cls-1,.cls-2{stroke-linejoin:round;}.cls-2,.cls-3{fill:none;}.cls-3{stroke-miterlimit:10;}</style></defs><title>oval-red-shaed</title><g id="Layer_2" data-name="Layer 2"><g id="Layer_1-2" data-name="Layer 1"><path class="cls-1" d="M3,52.88V236.75s0,54.11,62.05,54.11,62.06-54.11,62.06-54.11V52.88S127.05,3,65.05,3,3,52.88,3,52.88Z"/><line class="cls-2" x1="9.55" y1="29.38" x2="120.55" y2="29.38"/><line class="cls-3" x1="2.55" y1="55.75" x2="126.55" y2="55.75"/><line class="cls-2" x1="2.55" y1="82.13" x2="126.55" y2="82.13"/><line class="cls-2" x1="2.55" y1="108.5" x2="126.55" y2="108.5"/><line class="cls-2" x1="2.55" y1="134.88" x2="126.55" y2="134.88"/><line class="cls-2" x1="2.55" y1="161.26" x2="126.55" y2="161.26"/><line class="cls-2" x1="2.55" y1="187.63" x2="126.55" y2="187.63"/><line class="cls-2" x1="3.55" y1="214.01" x2="127.55" y2="214.01"/><line class="cls-2" x1="2.55" y1="240.38" x2="126.55" y2="240.38"/><line class="cls-2" x1="12.55" y1="266.76" x2="117.55" y2="266.76"/></g></g></svg>