<svg xmlns="http://www.w3.org/2000/svg" viewBox="0 0 148.67 305.12"><defs><style>.cls-1{fill:none;stroke:#00a65b;stroke-miterlimit:10;stroke-width:6px;}</style></defs><title>squiggle-green-shaded</title><g id="Layer_2" data-name="Layer 2"><g id="Layer_2-2" data-name="Layer 2"><path class="cls-1" d="M22.67,152s-25,61-13,101,59,48,79,49,57-4,57-34-37.44-8.95-12-134c24-118-74-131-93-131-9,0-50,6-34,35S47.67,104,22.67,152Z"/><line class="cls-1" x1="2.67" y1="21" x2="98.67" y2="21"/><line class="cls-1" x1="14.67" y1="51" x2="125.67" y2="51"/><line class="cls-1" x1="27.67" y1="81" x2="135.67" y2="81"/><line class="cls-1" x1="32.67" y1="111" x2="136.67" y2="111"/><line class="cls-1" x1="27.67" y1="141" x2="132.67" y2="141"/><line class="cls-1" x1="15.67" y1="171" x2="127.67" y2="171"/><line class="cls-1" x1="8.67" y1="201" x2="125.67" y2="201"/><line class="cls-1" x1="6.67" y1="231" x2="127.67" y2="231"/><line class="cls-1" x1="12.67" y1="261" x2="144.67" y2="261"/><line class="cls-1" x1="43.67" y1="291" x2="134.67" y2="291"/></g></g></svg>